<svg xmlns="http://www.w3.org/2000/svg" viewBox="0 0 615 400"><defs><style>.cls-1,.cls-6,.cls-7{font-size:92.58px;font-family:Arciform, Arciform Sans;}.cls-1,.cls-13{fill:#90c8ab;}.cls-1{letter-spacing:-0.06em;}.cls-2{letter-spacing:0.08em;}.cls-3{letter-spacing:0.02em;}.cls-4{letter-spacing:0.04em;}.cls-5{letter-spacing:0.02em;}.cls-6{letter-spacing:0.04em;}.cls-7{letter-spacing:0.03em;}.cls-8{letter-spacing:0.22em;}.cls-9{letter-spacing:0.05em;}.cls-10{letter-spacing:0.04em;}.cls-11{fill:#fff;stroke:#000;}.cls-11,.cls-12{stroke-miterlimit:10;}.cls-12{stroke:#fff;}.cls-14{fill:#140b04;}.cls-15{fill:#a99583;}.cls-16{fill:#a99885;}.cls-17{fill:#2ab562;}</style></defs><g id="Layer_1" data-name="Layer 1"><text class="cls-1" transform="translate(67.39 319.96)">T<tspan class="cls-2" x="41.01" y="0">r</tspan><tspan class="cls-3" x="75.73" y="0">i</tspan><tspan class="cls-4" x="92.39" y="0">b</tspan><tspan class="cls-5" x="148.31" y="0">e</tspan></text><text class="cls-6" transform="translate(288.9 319.96) scale(1.21 1)">S</text><text class="cls-7" transform="translate(340.65 319.96)">p<tspan class="cls-8" x="54.34" y="0"> </tspan><tspan class="cls-9" x="103.13" y="0">c</tspan><tspan class="cls-10" x="157.29" y="0">e</tspan></text><circle cx="417.51" cy="298.22" r="21.74"/><rect x="431.25" y="296.01" width="7.99" height="23.94" rx="2.91"/><circle class="cls-11" cx="417.51" cy="298.22" r="13.75"/><circle class="cls-12" cx="417.51" cy="298.22" r="5.31"/></g><g id="Layer_4" data-name="Layer 4"><path d="M288.53,234.68c-2.85-3.26-2.71-7.08,0-10.85a8.86,8.86,0,0,0,1.8-4.67q.22-14.55,0-29.1a8.75,8.75,0,0,0-1.74-4.68c-2.7-3.69-2.72-6.86-.27-10.77a13,13,0,0,0,2-6.14c.24-7.3.11-14.62.08-21.93,0-4.06-.41-4.36-4.4-3.49-12.51,2.74-24.74,1.21-36.8-2.51a18.31,18.31,0,0,1-3.45-1.53c-5.52-3-6.43-7.62-1.82-11.9a65.13,65.13,0,0,1,31.25-15.89c4.71-1,9.64-1,15.09-1.53-.7-5.09,2.23-11-2.47-16.23-2.29-2.56-1.55-6.75.42-9.9a13.08,13.08,0,0,0,2.1-6.08c.24-7.68.23-15.37,0-23.05a11.39,11.39,0,0,0-2-5.81c-2.24-3.28-2.61-6.6-.81-10,1.65-3.11,4.48-4.52,8.13-4.48,8.06.09,16.13-.1,24.19.06,6.75.13,11.19,7.46,7.47,12.89-2.44,3.55-2.92,7-2.73,11,.13,2.62-.62,5.86.66,7.66.86,1.21,4.58.3,7,.5,14.71,1.25,27.36,7.42,38.44,16.81,5,4.21,4.18,10-2,12.2a92.63,92.63,0,0,1-21.9,5c-7,.69-14.22-.4-21.85-.73a30.44,30.44,0,0,0-.31,3.34c-.05,5.55,0,11.09,0,16.63,0,3.89-.14,7.54,2.71,11,2.36,2.83,1.5,6.31-.68,9.45a10.67,10.67,0,0,0-1.95,5.37c-.2,7.94-.18,15.88,0,23.81a10,10,0,0,0,1.79,5.06c2.8,4.14,2.62,7.64-.35,11.76a10.83,10.83,0,0,0-1.86,5.87c-.07,9.44.1,18.89.35,28.33a7.24,7.24,0,0,0,1.64,3.63c2.23,3.09,3.2,6.33,1.37,9.88a8.79,8.79,0,0,1-8.56,5.08c-7.81-.1-15.62.07-23.43-.08-2.7-.05-5.66-.16-6.89-3.43,9.93.25,19.85.54,29.77.76,3.44.07,6.11-1.3,8.49-5.26h-5.63l-.48-2.55a6.69,6.69,0,0,1,.72-.86c1-.88,2-1.73,3-2.59-1.32-.53-2.61-1.42-4-1.53q-7.31-.61-14.65-.78c-5.35-.12-5.35,0-5.34,5.23-1.46.06-2.92.09-4.38.2-2.05.16-3.2,1.1-2.73,3.34a15.83,15.83,0,0,1-2.07-.43c-.92-.32-1.79-.77-2.68-1.16-.14,1.09-.3,2.19-.39,3.29C288.45,233.46,288.52,234.07,288.53,234.68Zm4.6-110.7c2.2-.78,2.13-1.82.35-3.06-2.8-3.67-6.93-3.44-10.89-3.72l-3.12.4a66.39,66.39,0,0,0-31.06,15.05c13,4.31,25,6,37.33,3,4.28-1.05,6.66-4.61,8.69-8.29l-1.3-3.39ZM324.75,87.8c.17,3.39,2.93,3.78,5.3,4.36,11.66,2.84,23,.89,34.19-2.54.52-.16.92-.71,1.61-1.26a13.81,13.81,0,0,0-2.4-2.13c-7.36-3.75-14.59-7.84-22.22-11a22.15,22.15,0,0,0-15.55-1c-2.47.83-4.75,1.94-4.55,5.17.57,1.69-2.2,3.92.86,5.2l1.64,1.3Zm-12.66,93.82c-1,.46-2,1.28-3.07,1.33-3.39.17-6.8,0-10.18.13-1.11.06-2.79.56-3.17,1.36-1.33,2.78-3,5.74-3.1,8.69-.41,8.54-.08,17.1-.2,25.65,0,1.51-.95,3-1.16,4.52a6.35,6.35,0,0,0,.47,2.93,10.74,10.74,0,0,0,4.76-.77c.62-.33.57-2.24.53-3.42,0-.95-.72-1.89-.72-2.84-.06-9.68-.13-19.37.09-29,0-1.11,1.76-3.13,2.68-3.12,4.81.07,9.61.74,14.42,1a42.68,42.68,0,0,0,5.79-.52l-4.12-5.92,5.91-.94.5-1c-5.16-1.62-4.11-5.57-4.12-9.09,0-7.93-.15-15.86,0-23.79.08-3.61-1.74-5.14-4.89-5.34-3.64-.23-7.29-.13-10.94-.13-2.76,0-4,1.18-3.95,4.16.16,8.05.07,16.11,0,24.17,0,3.85,1.21,8.15-4.11,10.24l.55,1.15Zm10-47.21c-5.7-1.9-4.64-6-4.66-9.63,0-7.79-.13-15.59.05-23.38.08-3.59-1.74-5.18-4.87-5.4-3.61-.26-7.26,0-10.88-.16-3.18-.11-4.09,1.43-4,4.41.14,8.17.08,16.34.06,24.52,0,3.66,1.14,7.77-4.11,9.35C296.55,136.25,316.92,136.54,322.05,134.41Zm-1-44.87c-3.67-4.09-3.66-4.09-3.66-9.81,0-7.93-.1-15.87.05-23.8.06-3.11-1.25-4.94-4.15-5.23a92.63,92.63,0,0,0-12-.46c-2.34.07-3.69,1.45-3.63,4.25.18,7.93.11,15.86.05,23.79,0,4,1.28,8.4-3.44,11.26ZM297.67,205.71c0,4,.06,8,0,12.06-.05,2.14.53,3.26,3,3.18,4.51-.13,9-.09,13.56,0,2.2,0,3.19-.76,3.17-3.06-.06-8.28-.08-16.57,0-24.86,0-2.49-1-3.32-3.38-3.27-4.4.09-8.79.07-13.19,0-2.26-.05-3.16.93-3.12,3.16C297.72,197.17,297.67,201.44,297.67,205.71ZM308,41.47c-3.88,0-7.77-.08-11.65.06-.77,0-1.5.94-2.26,1.45.68.58,1.34,1.66,2,1.67q11.46.16,22.91,0c.7,0,1.38-1.1,2.07-1.7-.73-.48-1.45-1.36-2.2-1.39C315.25,41.39,311.61,41.47,308,41.47Z"/><path d="M321.43,230.69h5.63c-2.38,4-5.05,5.33-8.49,5.26-9.92-.22-19.84-.51-29.77-.76a.54.54,0,0,1-.27-.51c0-.61-.08-1.22,0-1.83.09-1.1.25-2.2.39-3.29.89.39,1.76.84,2.68,1.16a16,16,0,0,0,2.06.43l1.05.5c.8.43,1.59,1.21,2.39,1.22q10.08.15,20.17,0c.81,0,1.61-.77,2.42-1.18Z"/><path class="cls-13" d="M282.59,117.2c4,.28,8.09,0,10.89,3.72-.12,1-.24,2-.35,3.06h0c-7.18-1.31-18.67,1.48-20.27,5.46l4.08-1c5.77-1.45,11.49-3.66,17.49-1-2,3.68-4.41,7.24-8.69,8.29-12.33,3-24.34,1.31-37.33-3a66.39,66.39,0,0,1,31.06-15.05Z"/><path class="cls-13" d="M323.63,86,322,84.67c-.43-2.4,1.24-2.51,2.77-2.26,4.42.7,8.82,1.58,13.23,2.38,1.3.23,2.61.4,4.75.72-3.52-3.83-9.7-5.37-21.61-6-.2-3.23,2.08-4.34,4.55-5.17a22.15,22.15,0,0,1,15.55,1c7.63,3.12,14.86,7.21,22.22,11a13.81,13.81,0,0,1,2.4,2.13c-.69.55-1.09,1.1-1.61,1.26C353,93.05,341.71,95,330.05,92.16c-2.37-.58-5.13-1-5.29-4.36Z"/><path d="M312.09,181.62h3l4.12,5.92a42.68,42.68,0,0,1-5.79.52c-4.81-.29-9.61-1-14.42-1-.92,0-2.66,2-2.68,3.12-.22,9.68-.15,19.37-.09,29,0,1,.7,1.89.72,2.84,0,1.18.09,3.09-.53,3.42a10.74,10.74,0,0,1-4.76.77,6.35,6.35,0,0,1-.47-2.93c.21-1.53,1.14-3,1.16-4.52.12-8.55-.21-17.11.2-25.65.14-2.95,1.77-5.91,3.1-8.69.38-.8,2.06-1.3,3.17-1.36,3.38-.17,6.79,0,10.18-.13C310.06,182.9,311.07,182.08,312.09,181.62Z"/><path class="cls-14" d="M300.75,227.61c0-5.26,0-5.35,5.34-5.23q7.34.17,14.65.78c1.35.11,2.64,1,4,1.53-1,.86-2,1.71-3,2.59a6.69,6.69,0,0,0-.72.86Z"/><path class="cls-15" d="M282.59,117.2l-3.12.4Z"/><path class="cls-15" d="M293.13,124c.11-1,.23-2,.35-3.06C295.26,122.16,295.33,123.2,293.13,124Z"/><path class="cls-16" d="M323.63,86l1.13,1.83Z"/><path class="cls-17" d="M294.68,231.65l25,0c-.81.41-1.61,1.17-2.42,1.18q-10.08.13-20.17,0C296.27,232.86,295.48,232.08,294.68,231.65Z"/></g></svg>